<svg
  xmlns="http://www.w3.org/2000/svg"
  height="75"
  width="75"
  viewBox="0 0 126 160"
>
  <!-- Side lines -->
  <path d="M18,63H2a2,2,0,0,0,0,4H18a2,2,0,0,0,0-4Z" fill="#F5F5F5" />
  <path d="M2,59h9a2,2,0,0,0,0-4H2a2,2,0,0,0,0,4Z" fill="#F5F5F5" />
  <path d="M11,71H2a2,2,0,0,0,0,4h9a2,2,0,0,0,0-4Z" fill="#F5F5F5" />
  <path d="M126,63H110a2,2,0,0,0,0,4h16a2,2,0,0,0,0-4Z" fill="#F5F5F5" />
  <path d="M126,55h-9a2,2,0,0,0,0,4h9a2,2,0,0,0,0-4Z" fill="#F5F5F5" />
  <path d="M126,71h-9a2,2,0,0,0,0,4h9a2,2,0,0,0,0-4Z" fill="#F5F5F5" />

  <!-- Head (reduced width / thinner stroke) -->
  <circle
    cx="64"
    cy="58"
    r="13"
    fill="none"
    stroke="#F5F5F5"
    stroke-width="3"
  />

  <!-- Body outline -->
  <path
    d="M80.75,74H80.5a23.22,23.22,0,0,1-7.39,5.12A23,23,0,0,1,47.51,74h-.26C35,74,25,83.5,25,95.22v28.54A4.35,4.35,0,0,0,29.45,128h69.1a4.35,4.35,0,0,0,4.45-4.24V95.22C103,83.5,93,74,80.75,74Z"
    fill="none"
    stroke="#F5F5F5"
    stroke-width="3"
  />

  <!-- Left hand (filled) -->
  <path
    d="M28.37,38.89a6.41,6.41,0,0,0,1.46.18,5.94,5.94,0,0,0,1.83-.29L35,43.43a6.06,6.06,0,0,0,8.52,1.41,6.19,6.19,0,0,0,1.42-8.5l-7-10a6,6,0,0,0,2.59-2.49,5.5,5.5,0,0,0,.64-4.34c-.65-2.48-2.83-4.41-6.64-5.9L24,8.77l.24-.19a2,2,0,0,0,.44-2.74l-3.49-5A2,2,0,0,0,19.91,0,2.05,2.05,0,0,0,18.39.4L.8,13.68a2,2,0,0,0-.44,2.74l3.48,5a2,2,0,0,0,1.33.83l.31,0a1.93,1.93,0,0,0,.78-.18,55,55,0,0,0,4.68,9.41L15.48,38a6,6,0,0,0,8.3,1.6,6.07,6.07,0,0,0,4.59-.72Z"
    fill="#F5F5F5"
  />

  <!-- Right hand (filled) -->
  <path
    d="M127.2,13.68,109.61.4A2.05,2.05,0,0,0,108.09,0a2,2,0,0,0-1.32.84l-3.49,5a2,2,0,0,0,.44,2.74l.24.19L93.5,13.62c-3.81,1.49-6,3.42-6.64,5.9a5.5,5.5,0,0,0,.64,4.34,6,6,0,0,0,2.59,2.49l-7,10a6.2,6.2,0,0,0,1.4,8.49,6.07,6.07,0,0,0,8.56-1.42l3.27-4.63a5.94,5.94,0,0,0,1.83.29,6.41,6.41,0,0,0,1.46-.18,6.07,6.07,0,0,0,3.17.89,6.13,6.13,0,0,0,1.42-.17,6,6,0,0,0,8.3-1.6l4.54-6.52a55,55,0,0,0,4.68-9.41,1.93,1.93,0,0,0,.78.18l.31,0a2,2,0,0,0,1.33-.83l3.48-5A2,2,0,0,0,127.2,13.68Z"
    fill="#F5F5F5"
  />
</svg>
