<svg
  xmlns="http://www.w3.org/2000/svg"
  width="36"
  height="45"
  viewBox="0 0 44 56"
  xml:space="preserve"
>
  <title>Pass Turn Icon</title>
  <path
    fill="#EADDDD"
    opacity="0.95"
    d="M29.3304,1.86474c-1.4668-2.01855-4.30273-2.46924-6.32275-1.00293c-0.97803,0.71045-1.62109,1.75977-1.81055,2.95361  c-0.18945,1.19434,0.09717,2.39063,0.80762,3.36914l10.92529,15.04492L22.00472,37.27392  c-1.46631,2.01953-1.0166,4.85596,1.00293,6.32227c0.78174,0.56787,1.70264,0.86523,2.65039,0.86523  c0.23828,0,0.47852-0.01855,0.71875-0.05664c1.19434-0.18945,2.24316-0.83252,2.9541-1.81104L43.9056,22.52343  c0.12695-0.17529,0.12695-0.4126,0-0.58789L29.3304,1.86474z"
  />
  <path
    fill="#C23B3B"
    opacity="0.9"
    d="M0.05696,40.64306c0.18945,1.19385,0.83252,2.24316,1.81055,2.95361c0.78174,0.56738,1.70313,0.86523,2.65088,0.86523  c0.23828,0,0.47852-0.01904,0.71875-0.05713c1.19385-0.18945,2.24316-0.83252,2.95361-1.81104l14.5752-20.07031  c0.12695-0.17529,0.12695-0.4126,0-0.58789L8.19075,1.86473C6.72395-0.15431,3.88704-0.60304,1.86751,0.8618  c-0.97803,0.71046-1.6211,1.75978-1.81055,2.95363c-0.18945,1.19433,0.09717,2.39062,0.80762,3.36914l10.92529,15.04492  L0.86458,37.27392C0.15413,38.25245-0.13249,39.44873,0.05696,40.64306z"
  />
</svg>
